<?xml version="1.0" standalone="no"?>
<!DOCTYPE svg PUBLIC "-//W3C//DTD SVG 20010904//EN"
 "http://www.w3.org/TR/2001/REC-SVG-20010904/DTD/svg10.dtd">
<svg version="1.0" xmlns="http://www.w3.org/2000/svg"
 width="406.000000pt" height="406.000000pt" viewBox="0 0 406.000000 406.000000"
 preserveAspectRatio="xMidYMid meet">
<metadata>
Created by potrace 1.14, written by Peter Selinger 2001-2017
</metadata>
<g transform="translate(0.000000,406.000000) scale(0.100000,-0.100000)"
fill="#000000" stroke="none">
<path d="M1725 4026 c-295 -108 -579 -336 -707 -568 -24 -43 -46 -78 -50 -78
-4 0 -10 9 -13 20 -7 23 -23 25 -62 8 -168 -74 -456 -337 -571 -522 l-30 -49
90 -98 c164 -176 251 -318 304 -495 36 -121 45 -334 19 -485 -31 -187 -101
-398 -201 -609 -70 -145 -250 -477 -265 -486 -24 -14 -10 -35 111 -167 58 -64
209 -190 331 -278 95 -68 287 -189 300 -189 4 0 9 125 12 278 5 327 0 289 136
902 75 340 84 413 85 722 0 148 3 268 6 268 3 0 46 -37 95 -82 112 -101 245
-212 308 -258 82 -59 79 -33 77 -548 -1 -498 -4 -537 -59 -672 -48 -117 -132
-210 -262 -288 -59 -36 -66 -50 -33 -63 80 -30 213 -62 329 -80 230 -34 671
-20 857 26 92 24 98 29 63 57 -143 111 -252 228 -289 308 -20 43 -21 65 -24
417 -2 236 0 373 6 373 22 0 298 -280 367 -372 117 -157 211 -356 256 -543 20
-83 43 -250 54 -392 4 -46 9 -83 12 -83 12 0 201 138 300 219 248 202 571 516
552 535 -2 3 -38 20 -79 39 -162 75 -232 149 -311 329 -104 237 -153 491 -154
793 0 320 61 528 200 683 69 76 208 163 298 185 15 4 27 12 27 18 0 34 -237
244 -356 316 -56 34 -186 93 -204 93 -7 0 -10 6 -7 14 8 21 -58 141 -136 244
-122 163 -289 318 -472 437 -116 76 -219 129 -223 115 -2 -6 9 -81 24 -166 27
-149 28 -159 17 -292 -23 -268 -77 -434 -303 -922 -100 -215 -90 -199 -107
-166 -63 120 -218 558 -268 756 -70 277 -69 374 10 651 47 162 50 179 38 179
-5 -1 -48 -16 -98 -34z m5 -82 c0 -3 -11 -50 -25 -105 -46 -181 -50 -412 -9
-589 33 -146 216 -645 324 -885 38 -85 33 -88 125 100 167 346 292 656 339
840 38 148 49 372 27 524 -6 41 -9 76 -7 79 12 12 198 -124 325 -237 133 -119
328 -354 319 -383 -2 -5 -33 -19 -68 -31 -75 -25 -155 -80 -204 -140 -72 -89
-94 -134 -326 -667 -54 -124 -132 -303 -174 -398 -42 -95 -76 -176 -76 -180 0
-4 51 -48 113 -97 160 -127 282 -230 356 -300 60 -57 63 -59 57 -30 -36 178
-61 509 -51 700 14 287 63 500 163 700 48 98 85 149 166 233 57 59 75 72 100
72 45 -1 154 -50 250 -114 78 -52 236 -189 236 -205 0 -4 -21 -17 -46 -29
-239 -116 -393 -386 -424 -741 -26 -295 48 -743 164 -986 75 -156 187 -278
299 -323 20 -8 37 -18 37 -23 0 -4 -22 -33 -50 -66 -111 -131 -614 -553 -634
-532 -2 2 -14 77 -25 167 -49 373 -216 698 -507 988 -90 90 -253 224 -272 224
-22 0 -31 -588 -11 -810 10 -114 10 -116 57 -185 26 -38 81 -104 124 -146 l78
-77 -33 -6 c-149 -27 -495 -35 -702 -16 -97 9 -248 35 -267 46 -4 3 28 39 71
82 91 90 139 171 174 292 43 148 49 241 45 701 -3 410 -4 428 -23 449 -11 13
-76 68 -145 123 -170 137 -321 270 -409 362 -40 42 -75 74 -77 72 -2 -2 3 -42
11 -88 63 -341 32 -706 -111 -1320 -75 -325 -90 -438 -97 -747 l-2 -103 -129
85 c-189 126 -367 276 -447 378 l-30 38 64 112 c174 305 258 490 338 748 59
187 72 270 73 455 0 193 -14 274 -78 425 -69 162 -209 361 -310 438 l-29 22
55 73 c150 199 451 453 487 411 4 -5 20 -40 36 -79 40 -98 137 -290 186 -366
48 -74 88 -123 221 -274 115 -130 248 -248 263 -233 3 3 -14 63 -38 134 -145
423 -304 680 -487 785 -33 19 -60 38 -60 42 0 19 63 132 103 185 65 84 232
241 318 298 125 83 279 154 279 128z m-581 -784 c109 -108 213 -279 297 -487
19 -47 34 -90 34 -96 0 -22 -113 100 -199 213 -48 63 -111 155 -140 203 -51
85 -121 233 -121 257 0 20 60 -22 129 -90z m1910 -31 c-152 -163 -276 -425
-323 -684 -33 -183 -38 -582 -10 -784 l7 -53 -177 141 c-97 78 -176 145 -176
149 0 4 31 72 69 152 39 80 122 271 186 425 172 415 255 570 351 654 37 32
121 75 131 66 2 -1 -24 -30 -58 -66z"/>
<path d="M1594 3834 c-80 -43 -200 -133 -296 -224 -97 -90 -188 -210 -188
-244 1 -14 20 -35 57 -61 165 -118 337 -400 452 -740 45 -136 93 -305 89 -321
-7 -35 -259 166 -389 311 -201 223 -278 344 -425 663 l-19 43 -72 -50 c-95
-67 -187 -154 -279 -264 -85 -101 -87 -78 12 -195 139 -163 246 -369 290 -557
25 -109 26 -362 0 -490 -24 -124 -60 -248 -107 -374 -48 -126 -181 -401 -273
-560 -36 -63 -66 -118 -66 -121 0 -18 198 -202 320 -297 70 -54 150 -106 155
-101 2 2 10 100 19 218 18 242 29 316 80 515 113 449 140 631 141 950 0 253
-10 335 -65 514 -19 65 -15 91 15 91 6 0 70 -59 141 -131 149 -151 296 -283
476 -427 70 -56 132 -112 138 -123 33 -61 38 -818 6 -1059 -22 -174 -71 -289
-168 -395 -27 -29 -45 -56 -40 -59 37 -22 673 -42 730 -22 22 7 21 9 -29 64
-62 70 -114 175 -131 267 -22 122 -12 963 12 957 15 -3 182 -125 266 -193 112
-91 259 -253 339 -373 141 -211 227 -429 266 -668 12 -76 26 -142 29 -149 7
-11 297 231 470 393 77 73 83 81 66 91 -68 42 -142 107 -182 160 -113 149
-224 460 -259 728 -28 213 -13 583 31 729 51 174 198 379 334 468 30 20 57 38
59 39 9 7 -57 66 -138 124 -93 66 -212 129 -247 129 -28 0 -119 -96 -182 -193
-113 -174 -176 -388 -202 -692 -20 -235 -4 -485 46 -714 13 -64 27 -128 31
-143 4 -22 1 -29 -20 -39 -23 -11 -28 -8 -58 27 -66 78 -155 157 -375 335
-124 99 -223 186 -221 192 22 54 369 852 416 957 118 261 225 402 349 462 37
17 69 33 71 35 8 5 -112 145 -212 246 -106 108 -248 227 -272 227 -10 0 -13
-33 -14 -157 -2 -286 -32 -407 -197 -793 -90 -213 -305 -646 -318 -643 -26 4
-190 366 -279 613 -52 146 -105 320 -144 475 -36 146 -38 331 -4 474 12 51 20
95 18 97 -2 2 -25 -8 -53 -22z"/>
</g>
</svg>
